<svg width="32" height="32" viewBox="0 0 32 32" fill="none" xmlns="http://www.w3.org/2000/svg">
<path d="M28 10.6667C27.7306 10.6667 21.5333 10.7054 16 13.3441C10.4666 10.7054 4.26929 10.6667 3.99996 10.6667C3.64634 10.6667 3.3072 10.8072 3.05715 11.0573C2.8071 11.3073 2.66663 11.6465 2.66663 12.0001V25.1774C2.66663 25.3563 2.70263 25.5334 2.7725 25.6981C2.84236 25.8628 2.94466 26.0117 3.07329 26.1361C3.33329 26.3867 3.71329 26.5427 4.04529 26.5094L4.21463 26.5081C5.12529 26.5081 9.94263 26.6387 15.436 29.2081C15.4573 29.2187 15.4813 29.2147 15.5026 29.2227C15.6613 29.2881 15.828 29.3334 16 29.3334C16.172 29.3334 16.3386 29.2881 16.4986 29.2227C16.52 29.2147 16.544 29.2187 16.5653 29.2081C22.0586 26.6374 26.876 26.5081 27.7866 26.5081L27.956 26.5094C28.2733 26.5427 28.6666 26.3867 28.928 26.1361C29.1866 25.8841 29.3333 25.5374 29.3333 25.1774V12.0001C29.3333 11.6465 29.1928 11.3073 28.9428 11.0573C28.6927 10.8072 28.3536 10.6667 28 10.6667ZM5.33329 13.3987C7.31329 13.5467 11.1746 14.0387 14.6666 15.6547V25.9774C10.6666 24.4107 7.21329 23.9854 5.33329 23.8761V13.3987ZM26.6666 23.8761C24.7866 23.9854 21.3333 24.4107 17.3333 25.9774V15.6547C20.8253 14.0387 24.6866 13.5467 26.6666 13.3987V23.8761Z" fill="#F3F3F3"/>
<path d="M16 10.6667C18.2091 10.6667 20 8.87589 20 6.66675C20 4.45761 18.2091 2.66675 16 2.66675C13.7909 2.66675 12 4.45761 12 6.66675C12 8.87589 13.7909 10.6667 16 10.6667Z" fill="#F3F3F3"/>
</svg>
