<svg width="64" height="64" viewBox="0 0 64 64" fill="none" xmlns="http://www.w3.org/2000/svg">
<path d="M56 21.3333C55.4613 21.3333 43.0667 21.4106 32 26.6879C20.9333 21.4106 8.53866 21.3333 7.99999 21.3333C7.29275 21.3333 6.61447 21.6142 6.11438 22.1143C5.61428 22.6144 5.33333 23.2927 5.33333 23.9999V50.3546C5.33333 50.7124 5.40534 51.0665 5.54507 51.3959C5.6848 51.7253 5.88939 52.0232 6.14666 52.2719C6.66666 52.7732 7.42666 53.0853 8.09066 53.0186L8.42933 53.0159C10.2507 53.0159 19.8853 53.2773 30.872 58.4159C30.9147 58.4372 30.9627 58.4292 31.0053 58.4452C31.3227 58.5759 31.656 58.6666 32 58.6666C32.344 58.6666 32.6773 58.5759 32.9973 58.4452C33.04 58.4292 33.088 58.4372 33.1307 58.4159C44.1173 53.2746 53.752 53.0159 55.5733 53.0159L55.912 53.0186C56.5467 53.0853 57.3333 52.7732 57.856 52.2719C58.3733 51.7679 58.6667 51.0746 58.6667 50.3546V23.9999C58.6667 23.2927 58.3857 22.6144 57.8856 22.1143C57.3855 21.6142 56.7072 21.3333 56 21.3333ZM10.6667 26.7973C14.6267 27.0933 22.3493 28.0773 29.3333 31.3093V51.9546C21.3333 48.8212 14.4267 47.9706 10.6667 47.7519V26.7973ZM53.3333 47.7519C49.5733 47.9706 42.6667 48.8212 34.6667 51.9546V31.3093C41.6507 28.0773 49.3733 27.0933 53.3333 26.7973V47.7519Z" fill="#F3F3F3"/>
<path d="M32 21.3333C36.4183 21.3333 40 17.7515 40 13.3333C40 8.91497 36.4183 5.33325 32 5.33325C27.5817 5.33325 24 8.91497 24 13.3333C24 17.7515 27.5817 21.3333 32 21.3333Z" fill="#F3F3F3"/>
</svg>
