<svg width="22" height="22" viewBox="0 0 22 22" fill="none" xmlns="http://www.w3.org/2000/svg">
<path d="M9.95 0.199951H11.45V3.94995H9.95V0.199951ZM14.966 5.37495L17.5955 2.74545L18.656 3.80595L16.0265 6.43545L14.966 5.37495ZM17.45 9.94995H21.2V11.45H17.45V9.94995ZM14.966 16.025L16.0265 14.9652L18.656 17.5947L17.5955 18.6552L14.966 16.025ZM9.95 17.45H11.45V21.2H9.95V17.45ZM2.7455 17.594L5.375 14.9645L6.4355 16.025L3.80675 18.6545L2.7455 17.594ZM0.199997 9.94995H3.95V11.45H0.199997V9.94995ZM2.74625 3.80595L3.80675 2.74545L6.43625 5.37495L5.375 6.43545L2.74625 3.80595ZM10.7 7.69995C11.2933 7.69995 11.8734 7.8759 12.3667 8.20554C12.8601 8.53519 13.2446 9.00372 13.4716 9.5519C13.6987 10.1001 13.7581 10.7033 13.6424 11.2852C13.5266 11.8672 13.2409 12.4017 12.8213 12.8213C12.4018 13.2408 11.8672 13.5266 11.2853 13.6423C10.7033 13.7581 10.1001 13.6987 9.55195 13.4716C9.00377 13.2445 8.53523 12.86 8.20559 12.3667C7.87594 11.8733 7.7 11.2933 7.7 10.7C7.70099 9.90461 8.01738 9.14212 8.57977 8.57973C9.14217 8.01733 9.90465 7.70094 10.7 7.69995ZM10.7 6.19995C9.80998 6.19995 8.93995 6.46387 8.19993 6.95834C7.45991 7.4528 6.88313 8.15561 6.54254 8.97788C6.20194 9.80014 6.11283 10.7049 6.28646 11.5779C6.4601 12.4508 6.88868 13.2526 7.51802 13.8819C8.14735 14.5113 8.94918 14.9399 9.82209 15.1135C10.695 15.2871 11.5998 15.198 12.4221 14.8574C13.2443 14.5168 13.9471 13.94 14.4416 13.2C14.9361 12.46 15.2 11.59 15.2 10.7C15.2 9.50648 14.7259 8.36188 13.882 7.51797C13.0381 6.67406 11.8935 6.19995 10.7 6.19995Z" fill="#F3F3F3"/>
</svg>
