<svg xmlns="http://www.w3.org/2000/svg" version="1.1" xmlns:xlink="http://www.w3.org/1999/xlink" xmlns:svgjs="http://svgjs.com/svgjs" id="BgenPttrnSvgRootPreview" width="100%" height="100%"><defs><pattern x="0" y="0" width="1" height="1" patternUnits="userSpaceOnUse" id="BgenPttrnLayer1"><g id="PatternRootContent1"><g id="BgenPttrnLayer1background"><rect width="1" height="1" id="BgenPttrnBackground1" class="color_1 fill_color_1" fill="#406370"></rect></g></g></pattern><pattern x="0" y="0" width="147" height="256" patternUnits="userSpaceOnUse" id="BgenPttrnLayer2" patternTransform="matrix(0.7,0,0,0.7,0,0)"><g id="PatternRootContent2"><g id="BgenPttrnLayer2Element3"><use xlink:href="#BgenPttrnElement3" x="57.57981872558594" y="-149.45114135742188" transform="translate(147, -64) scale(1) translate(-147, 64) rotate(46, 147, -64)"></use><use xlink:href="#BgenPttrnElement3" x="-89.42018127441406" y="-149.45114135742188" transform="translate(0, -64) scale(1) translate(0, 64) rotate(46, 0, -64)"></use><use xlink:href="#BgenPttrnElement3" x="-15.920181274414062" y="-21.451141357421875" transform="translate(73.5, 64) scale(1) translate(-73.5, -64) rotate(46, 73.5, 64)"></use><use xlink:href="#BgenPttrnElement3" x="-162.92018127441406" y="-21.451141357421875" transform="translate(-73.5, 64) scale(1) translate(73.5, -64) rotate(46, -73.5, 64)"></use><use xlink:href="#BgenPttrnElement3" x="131.07981872558594" y="-21.451141357421875" transform="translate(220.5, 64) scale(1) translate(-220.5, -64) rotate(46, 220.5, 64)"></use><use xlink:href="#BgenPttrnElement3" x="57.57981872558594" y="106.54885864257812" transform="translate(147, 192) scale(1) translate(-147, -192) rotate(46, 147, 192)"></use><use xlink:href="#BgenPttrnElement3" x="-89.42018127441406" y="106.54885864257812" transform="translate(0, 192) scale(1) translate(0, -192) rotate(46, 0, 192)"></use><use xlink:href="#BgenPttrnElement3" x="-15.920181274414062" y="234.54885864257812" transform="translate(73.5, 320) scale(1) translate(-73.5, -320) rotate(46, 73.5, 320)"></use><use xlink:href="#BgenPttrnElement3" x="-15.920181274414062" y="234.54885864257812" transform="translate(73.5, 320) scale(1) translate(-73.5, -320) rotate(46, 73.5, 320)"></use></g></g></pattern><symbol id="BgenPttrnElement3"><g class="color_4 fill_color_4" fill="#f2eded"><path d="M100.881,129.49722290039062c0.053,-0.05,0.107,-0.096,0.154,-0.15c0.049,-0.059,0.088,-0.124,0.128,-0.188c0.04,-0.061,0.081,-0.12,0.111,-0.186c0.03,-0.067,0.05,-0.139,0.072,-0.21c0.018,-0.058,0.048,-0.111,0.059,-0.171c0.003,-0.017,0,-0.035,0.002,-0.054c0.003,-0.015,0.011,-0.029,0.013,-0.045L103.939,109.96546936035156c0.126,-0.923,-0.52,-1.773,-1.444,-1.899c-0.923,-0.126,-1.773,0.521,-1.898,1.444L100.597,109.50975799560547l-2.108,15.496l-2.203,-1.847L76.944,106.92705535888672c-0.714,-0.598,-1.778,-0.506,-2.377,0.208c-0.258,0.308,-0.38,0.68,-0.387,1.053c-0.009,0.492,0.188,0.985,0.595,1.326l20.514,17.213l1.031,0.865L81.425,132.3577880859375c-0.888,0.285,-1.376,1.234,-1.092,2.122c0.102,0.314,0.286,0.579,0.522,0.777c0.428,0.359,1.028,0.498,1.602,0.315l-0.001,-0.001l17.809,-5.699c0.016,-0.004,0.027,-0.014,0.042,-0.021c0.018,-0.006,0.035,-0.004,0.053,-0.012c0.058,-0.023,0.107,-0.061,0.163,-0.09c0.063,-0.034,0.129,-0.063,0.189,-0.104C100.772,129.602,100.824,129.549,100.881,129.49722290039062Z" transform="matrix(1,0,0,1,0,0)"></path><path d="M92.376,153.735107421875c0.016,0.071,0.029,0.141,0.053,0.208c0.026,0.071,0.064,0.137,0.099,0.204c0.033,0.064,0.062,0.129,0.106,0.189c0.043,0.059,0.095,0.112,0.146,0.167c0.041,0.045,0.073,0.096,0.119,0.136c0.014,0.011,0.031,0.017,0.046,0.029c0.012,0.009,0.019,0.023,0.032,0.034L107.762,166.1495361328125c0.736,0.571,1.797,0.436,2.366,-0.3c0.571,-0.737,0.436,-1.797,-0.301,-2.366L109.827,163.48326110839844l-12.365,-9.573l2.701,-0.984L123.891,144.2897186279297c0.874,-0.318,1.327,-1.287,1.008,-2.162c-0.137,-0.377,-0.399,-0.669,-0.718,-0.862c-0.422,-0.254,-0.947,-0.33,-1.446,-0.148l-25.163,9.16l-1.266,0.461L99.627,135.45594787597656c0.198,-0.912,-0.381,-1.809,-1.292,-2.007c-0.323,-0.07,-0.644,-0.042,-0.934,0.064c-0.525,0.192,-0.946,0.641,-1.073,1.229l0.002,-0.001l-3.97,18.272c-0.004,0.015,0,0.03,-0.003,0.046c-0.004,0.017,-0.013,0.032,-0.017,0.052c-0.01,0.062,-0.001,0.123,-0.004,0.185c-0.003,0.073,-0.009,0.144,-0.004,0.215C92.339,153.588,92.36,153.66,92.376,153.735107421875Z" transform="matrix(1,0,0,1,0,0)"></path><path d="M75.638,134.25067138671875c-0.07,-0.021,-0.136,-0.045,-0.208,-0.058c-0.074,-0.014,-0.151,-0.014,-0.226,-0.016c-0.073,-0.004,-0.143,-0.011,-0.217,-0.003c-0.074,0.007,-0.144,0.027,-0.218,0.043c-0.059,0.013,-0.119,0.014,-0.178,0.035c-0.017,0.006,-0.031,0.018,-0.048,0.025c-0.015,0.005,-0.031,0.005,-0.045,0.011L57.193,141.3680877685547c-0.862,0.353,-1.275,1.338,-0.922,2.2c0.353,0.864,1.338,1.275,2.2,0.922L58.47,144.49008178710938l14.473,-5.923l-0.498,2.831L68.06,166.2663116455078c-0.161,0.917,0.451,1.793,1.368,1.954c0.396,0.07,0.779,-0.011,1.105,-0.191c0.431,-0.237,0.759,-0.655,0.852,-1.178l4.649,-26.373l0.234,-1.326L87.843,149.66937255859375c0.691,0.627,1.756,0.576,2.384,-0.115c0.221,-0.245,0.359,-0.537,0.412,-0.84c0.097,-0.551,-0.083,-1.139,-0.528,-1.544l-0.001,0.002l-13.84,-12.575c-0.011,-0.011,-0.025,-0.016,-0.039,-0.026c-0.013,-0.013,-0.022,-0.028,-0.037,-0.04c-0.049,-0.039,-0.106,-0.062,-0.159,-0.096c-0.062,-0.038,-0.119,-0.08,-0.184,-0.111C75.783,134.292,75.711,134.273,75.638,134.25067138671875Z" transform="matrix(1,0,0,1,0,0)"></path><path d="M57.006,117.39957427978516c0.069,0.021,0.136,0.045,0.206,0.058c0.075,0.013,0.151,0.014,0.227,0.017c0.073,0.004,0.144,0.01,0.217,0.003c0.073,-0.007,0.145,-0.026,0.218,-0.043c0.059,-0.013,0.12,-0.014,0.178,-0.034c0.016,-0.006,0.03,-0.018,0.048,-0.025c0.015,-0.005,0.03,-0.005,0.046,-0.011L75.45,110.28228759765625c0.863,-0.353,1.275,-1.337,0.923,-2.2c-0.353,-0.863,-1.337,-1.276,-2.2,-0.922L74.173,107.15979766845703l-14.473,5.923l0.498,-2.832L64.583,85.3842544555664c0.161,-0.917,-0.45,-1.793,-1.368,-1.954c-0.396,-0.07,-0.779,0.011,-1.105,0.191c-0.43,0.238,-0.76,0.655,-0.851,1.178l-4.649,26.372l-0.234,1.326L44.8,101.98069763183594c-0.69,-0.627,-1.756,-0.575,-2.384,0.115c-0.221,0.245,-0.359,0.537,-0.412,0.841c-0.097,0.55,0.083,1.14,0.528,1.544l0,-0.001l13.84,12.574c0.012,0.011,0.026,0.016,0.039,0.026c0.014,0.012,0.021,0.028,0.037,0.04c0.049,0.039,0.106,0.063,0.159,0.096c0.061,0.038,0.119,0.08,0.184,0.111C56.86,117.358,56.933,117.376,57.006,117.39957427978516Z" transform="matrix(1,0,0,1,0,0)"></path><path d="M31.763,122.1530532836914c-0.054,0.049,-0.108,0.095,-0.154,0.15c-0.048,0.058,-0.086,0.124,-0.127,0.188c-0.039,0.061,-0.081,0.119,-0.111,0.186c-0.03,0.067,-0.05,0.138,-0.071,0.21c-0.018,0.058,-0.047,0.111,-0.058,0.171c-0.002,0.018,0,0.035,-0.002,0.054c-0.002,0.015,-0.011,0.028,-0.014,0.045L28.704,141.68453979492188c-0.126,0.923,0.521,1.774,1.444,1.9c0.923,0.126,1.774,-0.521,1.898,-1.444L32.046,142.14015197753906l2.107,-15.495l2.203,1.847L55.7,144.722900390625c0.713,0.598,1.777,0.506,2.376,-0.208c0.258,-0.308,0.38,-0.68,0.387,-1.053c0.009,-0.492,-0.188,-0.985,-0.595,-1.327l-20.514,-17.212l-1.032,-0.866L51.218,119.29255676269531c0.889,-0.284,1.376,-1.234,1.092,-2.122c-0.101,-0.315,-0.286,-0.579,-0.522,-0.777c-0.429,-0.359,-1.028,-0.499,-1.601,-0.315l0.002,0.001l-17.809,5.699c-0.015,0.005,-0.026,0.015,-0.042,0.021c-0.017,0.005,-0.035,0.005,-0.053,0.011c-0.059,0.023,-0.107,0.06,-0.162,0.089c-0.064,0.034,-0.13,0.064,-0.188,0.104C31.872,122.047,31.819,122.101,31.763,122.1530532836914Z" transform="matrix(1,0,0,1,0,0)"></path><path d="M40.268,97.91542053222656c-0.017,-0.071,-0.029,-0.141,-0.054,-0.209c-0.025,-0.071,-0.063,-0.138,-0.099,-0.204c-0.033,-0.065,-0.063,-0.13,-0.106,-0.19c-0.043,-0.06,-0.095,-0.112,-0.146,-0.167c-0.041,-0.045,-0.072,-0.096,-0.119,-0.137c-0.014,-0.011,-0.031,-0.018,-0.046,-0.029c-0.012,-0.01,-0.019,-0.024,-0.032,-0.034L24.881,85.50039672851562c-0.736,-0.571,-1.796,-0.435,-2.366,0.301c-0.572,0.737,-0.435,1.797,0.302,2.366L22.816,88.16727447509766l12.366,9.572l-2.701,0.984L8.752,107.36006927490234c-0.874,0.319,-1.327,1.287,-1.008,2.162c0.137,0.377,0.399,0.669,0.718,0.861c0.421,0.254,0.946,0.33,1.446,0.149l25.164,-9.16l1.266,-0.46L33.017,116.1939697265625c-0.198,0.912,0.379,1.81,1.292,2.007c0.323,0.069,0.645,0.042,0.934,-0.063c0.526,-0.191,0.945,-0.641,1.073,-1.229l-0.002,0l3.97,-18.273c0.004,-0.015,0.001,-0.03,0.003,-0.047c0.005,-0.018,0.014,-0.033,0.016,-0.052c0.009,-0.062,0.001,-0.123,0.003,-0.185c0.002,-0.072,0.009,-0.143,0.004,-0.215C40.304,98.062,40.284,97.989,40.268,97.91542053222656Z" transform="matrix(1,0,0,1,0,0)"></path><path d="M45.545,73.35347747802734c0.016,0.071,0.029,0.141,0.053,0.208c0.026,0.072,0.064,0.138,0.099,0.205c0.033,0.065,0.063,0.13,0.106,0.189c0.043,0.06,0.095,0.113,0.146,0.167c0.041,0.045,0.072,0.096,0.118,0.137c0.014,0.011,0.03,0.018,0.046,0.029c0.012,0.01,0.02,0.024,0.033,0.034L60.931,85.76795196533203c0.736,0.571,1.796,0.436,2.366,-0.301c0.571,-0.737,0.436,-1.796,-0.301,-2.366L62.996,83.1011734008789l-12.365,-9.573l2.701,-0.985L77.06,63.90834045410156c0.875,-0.319,1.327,-1.287,1.008,-2.162c-0.137,-0.377,-0.399,-0.669,-0.718,-0.861c-0.421,-0.254,-0.947,-0.33,-1.446,-0.148l-25.164,9.16l-1.265,0.46L52.795,55.07405471801758c0.198,-0.912,-0.38,-1.809,-1.292,-2.007c-0.323,-0.069,-0.644,-0.042,-0.934,0.063c-0.525,0.191,-0.946,0.641,-1.073,1.23l0.001,0l-3.969,18.273c-0.004,0.016,-0.001,0.03,-0.003,0.047c-0.004,0.018,-0.014,0.032,-0.016,0.052c-0.009,0.062,-0.001,0.123,-0.004,0.186c-0.003,0.072,-0.009,0.143,-0.004,0.215C45.508,73.206,45.529,73.279,45.545,73.35347747802734Z" transform="matrix(1,0,0,1,0,0)"></path><path d="M28.807,53.86908721923828c-0.07,-0.021,-0.137,-0.046,-0.207,-0.058c-0.075,-0.013,-0.151,-0.013,-0.226,-0.016c-0.072,-0.004,-0.143,-0.01,-0.217,-0.003c-0.073,0.008,-0.145,0.026,-0.218,0.043c-0.059,0.013,-0.119,0.015,-0.178,0.035c-0.016,0.007,-0.03,0.018,-0.048,0.025c-0.014,0.006,-0.03,0.005,-0.046,0.011L10.363,60.98613739013672c-0.863,0.352,-1.276,1.338,-0.924,2.2c0.352,0.863,1.338,1.276,2.199,0.922L11.639,64.10802459716797l14.473,-5.922l-0.498,2.832L21.229,85.88431549072266c-0.161,0.917,0.451,1.792,1.368,1.954c0.396,0.07,0.779,-0.011,1.105,-0.191c0.431,-0.238,0.759,-0.656,0.852,-1.178l4.649,-26.372l0.234,-1.327L41.012,69.2877426147461c0.69,0.628,1.756,0.575,2.384,-0.115c0.222,-0.245,0.358,-0.537,0.412,-0.841c0.097,-0.551,-0.082,-1.139,-0.528,-1.544l0,0.002l-13.84,-12.574c-0.011,-0.011,-0.026,-0.015,-0.039,-0.026c-0.013,-0.013,-0.021,-0.028,-0.036,-0.04c-0.049,-0.039,-0.105,-0.062,-0.158,-0.096c-0.061,-0.039,-0.12,-0.08,-0.184,-0.111C28.953,53.911,28.88,53.892,28.807,53.86908721923828Z" transform="matrix(1,0,0,1,0,0)"></path><path d="M54.05,49.115882873535156c0.053,-0.05,0.107,-0.096,0.154,-0.151c0.049,-0.058,0.087,-0.124,0.127,-0.188c0.039,-0.061,0.081,-0.119,0.111,-0.186c0.03,-0.067,0.049,-0.138,0.072,-0.21c0.018,-0.058,0.047,-0.11,0.059,-0.171c0.003,-0.018,0,-0.035,0.002,-0.054c0.003,-0.015,0.011,-0.029,0.013,-0.045L57.108,29.58345603942871c0.126,-0.923,-0.521,-1.773,-1.444,-1.899c-0.924,-0.126,-1.773,0.521,-1.898,1.444L53.766,29.128339767456055l-2.107,15.495l-2.203,-1.847L30.112,26.544893264770508c-0.713,-0.597,-1.777,-0.506,-2.376,0.208c-0.258,0.308,-0.38,0.68,-0.387,1.052c-0.01,0.492,0.188,0.984,0.594,1.326l20.515,17.213l1.032,0.866L34.594,51.97574234008789c-0.888,0.285,-1.377,1.233,-1.092,2.122c0.102,0.314,0.286,0.579,0.521,0.777c0.428,0.36,1.028,0.498,1.601,0.315l-0.001,-0.002l17.81,-5.698c0.015,-0.004,0.026,-0.014,0.042,-0.021c0.018,-0.005,0.035,-0.005,0.053,-0.012c0.058,-0.023,0.107,-0.061,0.162,-0.09c0.063,-0.034,0.129,-0.063,0.189,-0.104C53.941,49.221,53.994,49.167,54.05,49.115882873535156Z" transform="matrix(1,0,0,1,0,0)"></path><path d="M77.959,41.40506362915039c-0.053,0.05,-0.107,0.096,-0.153,0.15c-0.049,0.058,-0.088,0.124,-0.128,0.188c-0.04,0.061,-0.081,0.12,-0.111,0.186c-0.03,0.067,-0.05,0.139,-0.072,0.21c-0.018,0.058,-0.048,0.111,-0.059,0.171c-0.003,0.017,0,0.035,-0.002,0.054c-0.003,0.015,-0.011,0.029,-0.013,0.045L74.901,60.93682098388672c-0.126,0.923,0.521,1.773,1.444,1.899c0.924,0.126,1.773,-0.521,1.898,-1.444L78.243,61.39253234863281l2.108,-15.496l2.203,1.847L101.897,63.97523498535156c0.713,0.598,1.777,0.506,2.376,-0.208c0.258,-0.308,0.38,-0.68,0.387,-1.053c0.009,-0.492,-0.188,-0.985,-0.595,-1.326l-20.514,-17.213l-1.031,-0.865L97.415,38.54450607299805c0.889,-0.285,1.377,-1.234,1.092,-2.122c-0.102,-0.314,-0.286,-0.579,-0.522,-0.777c-0.428,-0.359,-1.028,-0.498,-1.602,-0.315l0.001,0.001l-17.809,5.699c-0.016,0.004,-0.027,0.014,-0.042,0.021c-0.018,0.006,-0.035,0.004,-0.053,0.012c-0.058,0.023,-0.107,0.061,-0.163,0.09c-0.063,0.034,-0.129,0.063,-0.189,0.104C78.069,41.3,78.016,41.354,77.959,41.40506362915039Z" transform="matrix(1,0,0,1,0,0)"></path><path d="M86.464,17.16718864440918c-0.016,-0.071,-0.028,-0.141,-0.053,-0.208c-0.026,-0.071,-0.064,-0.137,-0.099,-0.204c-0.033,-0.064,-0.062,-0.129,-0.106,-0.189c-0.043,-0.059,-0.095,-0.112,-0.146,-0.167c-0.041,-0.045,-0.073,-0.096,-0.119,-0.136c-0.014,-0.011,-0.031,-0.017,-0.046,-0.029c-0.012,-0.009,-0.019,-0.023,-0.032,-0.034L71.079,4.7527546882629395c-0.737,-0.571,-1.797,-0.436,-2.367,0.3c-0.571,0.737,-0.436,1.797,0.301,2.366L69.013,7.419031143188477l12.366,9.573l-2.701,0.984L54.95,26.612571716308594c-0.875,0.318,-1.327,1.287,-1.009,2.162c0.137,0.377,0.399,0.669,0.718,0.862c0.422,0.254,0.947,0.33,1.446,0.149l25.163,-9.16l1.266,-0.461L79.214,35.446346282958984c-0.199,0.912,0.38,1.809,1.292,2.007c0.323,0.07,0.644,0.042,0.934,-0.064c0.525,-0.192,0.946,-0.641,1.073,-1.229l-0.002,0.001l3.97,-18.273c0.004,-0.015,0,-0.03,0.003,-0.046c0.005,-0.017,0.013,-0.032,0.017,-0.052c0.01,-0.062,0.001,-0.123,0.004,-0.185c0.003,-0.073,0.009,-0.144,0.004,-0.215C86.501,17.315,86.481,17.242,86.464,17.16718864440918Z" transform="matrix(1,0,0,1,0,0)"></path><path d="M103.202,36.651615142822266c0.07,0.021,0.137,0.045,0.208,0.058c0.074,0.014,0.151,0.014,0.226,0.016c0.073,0.004,0.143,0.011,0.217,0.003c0.074,-0.007,0.144,-0.027,0.218,-0.043c0.059,-0.013,0.119,-0.014,0.178,-0.035c0.016,-0.006,0.031,-0.018,0.048,-0.025c0.015,-0.005,0.031,-0.005,0.045,-0.011L121.647,29.534204483032227c0.863,-0.353,1.275,-1.338,0.923,-2.2c-0.353,-0.864,-1.338,-1.275,-2.2,-0.922L120.37,26.41221809387207l-14.473,5.923l0.498,-2.831L110.781,4.635972023010254c0.16,-0.916,-0.451,-1.793,-1.369,-1.954c-0.396,-0.07,-0.779,0.011,-1.105,0.191c-0.431,0.237,-0.759,0.655,-0.852,1.178l-4.649,26.373l-0.234,1.326L90.998,21.232927322387695c-0.691,-0.627,-1.757,-0.576,-2.384,0.115c-0.221,0.245,-0.359,0.537,-0.412,0.84c-0.097,0.551,0.083,1.139,0.528,1.544l0.001,-0.002l13.84,12.575c0.011,0.011,0.025,0.016,0.039,0.026c0.013,0.013,0.022,0.028,0.037,0.04c0.049,0.039,0.106,0.062,0.159,0.096c0.062,0.038,0.119,0.08,0.184,0.111C103.057,36.61,103.13,36.629,103.202,36.651615142822266Z" transform="matrix(1,0,0,1,0,0)"></path><path d="M121.835,53.502716064453125c-0.07,-0.021,-0.137,-0.045,-0.207,-0.058c-0.075,-0.013,-0.151,-0.014,-0.227,-0.017c-0.073,-0.004,-0.144,-0.01,-0.217,-0.003c-0.073,0.007,-0.145,0.026,-0.218,0.043c-0.059,0.013,-0.12,0.014,-0.178,0.034c-0.016,0.006,-0.03,0.018,-0.048,0.025c-0.015,0.005,-0.03,0.005,-0.046,0.011L103.391,60.62000274658203c-0.863,0.353,-1.276,1.337,-0.923,2.2c0.353,0.863,1.337,1.276,2.2,0.922L104.667,63.74249267578125l14.474,-5.923l-0.498,2.832L114.257,85.51803588867188c-0.161,0.917,0.451,1.793,1.369,1.954c0.396,0.07,0.779,-0.011,1.105,-0.191c0.43,-0.238,0.76,-0.655,0.851,-1.178l4.649,-26.372l0.234,-1.326L134.04,68.92158508300781c0.691,0.627,1.757,0.575,2.384,-0.115c0.221,-0.245,0.359,-0.537,0.412,-0.841c0.097,-0.55,-0.083,-1.14,-0.528,-1.544l0,0.001l-13.84,-12.574c-0.012,-0.011,-0.026,-0.016,-0.039,-0.026c-0.014,-0.012,-0.021,-0.028,-0.037,-0.04c-0.049,-0.039,-0.106,-0.062,-0.159,-0.096c-0.061,-0.038,-0.119,-0.08,-0.184,-0.111C121.98,53.545,121.908,53.526,121.835,53.502716064453125Z" transform="matrix(1,0,0,1,0,0)"></path><path d="M147.078,48.74923324584961c0.053,-0.049,0.108,-0.095,0.153,-0.15c0.048,-0.058,0.086,-0.124,0.127,-0.188c0.039,-0.061,0.081,-0.119,0.111,-0.186c0.03,-0.067,0.05,-0.138,0.071,-0.21c0.018,-0.058,0.047,-0.111,0.058,-0.171c0.002,-0.018,0,-0.035,0.002,-0.054c0.002,-0.015,0.011,-0.028,0.014,-0.045L150.136,29.217748641967773c0.126,-0.923,-0.52,-1.774,-1.443,-1.9c-0.923,-0.126,-1.774,0.521,-1.898,1.444L146.794,28.76213264465332l-2.107,15.495l-2.203,-1.847L123.141,26.17938804626465c-0.714,-0.598,-1.778,-0.506,-2.377,0.208c-0.258,0.308,-0.38,0.68,-0.387,1.053c-0.009,0.492,0.188,0.985,0.595,1.327l20.514,17.212l1.032,0.866L127.622,51.60973358154297c-0.888,0.284,-1.376,1.234,-1.092,2.122c0.101,0.315,0.286,0.579,0.522,0.777c0.429,0.359,1.028,0.499,1.601,0.315l-0.002,-0.001l17.809,-5.699c0.015,-0.005,0.026,-0.015,0.042,-0.021c0.017,-0.005,0.035,-0.005,0.053,-0.011c0.059,-0.023,0.107,-0.06,0.162,-0.089c0.064,-0.034,0.13,-0.064,0.188,-0.104C146.969,48.855,147.021,48.801,147.078,48.74923324584961Z" transform="matrix(1,0,0,1,0,0)"></path><path d="M138.573,72.98686981201172c0.017,0.071,0.029,0.141,0.053,0.209c0.025,0.071,0.063,0.138,0.099,0.204c0.033,0.065,0.063,0.13,0.106,0.19c0.043,0.06,0.095,0.112,0.146,0.167c0.041,0.045,0.072,0.096,0.119,0.137c0.014,0.011,0.031,0.018,0.046,0.029c0.012,0.01,0.019,0.024,0.032,0.034L153.959,85.40188598632812c0.737,0.571,1.797,0.435,2.367,-0.301c0.572,-0.737,0.435,-1.797,-0.302,-2.366L156.024,82.73501586914062l-12.366,-9.572l2.701,-0.984L170.088,63.542213439941406c0.874,-0.319,1.327,-1.287,1.008,-2.162c-0.137,-0.377,-0.399,-0.669,-0.718,-0.861c-0.421,-0.254,-0.946,-0.33,-1.446,-0.149l-25.164,9.16l-1.266,0.46L145.824,54.70832061767578c0.197,-0.912,-0.38,-1.81,-1.292,-2.007c-0.323,-0.069,-0.645,-0.042,-0.934,0.063c-0.526,0.191,-0.945,0.641,-1.073,1.229l0.002,0l-3.97,18.273c-0.004,0.015,-0.001,0.03,-0.003,0.047c-0.005,0.018,-0.014,0.033,-0.016,0.052c-0.009,0.062,-0.001,0.123,-0.003,0.185c-0.002,0.072,-0.009,0.143,-0.004,0.215C138.536,72.84,138.556,72.913,138.573,72.98686981201172Z" transform="matrix(1,0,0,1,0,0)"></path><path d="M133.296,97.5488052368164c-0.017,-0.071,-0.03,-0.141,-0.053,-0.208c-0.026,-0.072,-0.064,-0.138,-0.099,-0.205c-0.033,-0.065,-0.063,-0.13,-0.106,-0.189c-0.043,-0.06,-0.095,-0.113,-0.146,-0.167c-0.041,-0.045,-0.072,-0.096,-0.118,-0.137c-0.014,-0.011,-0.03,-0.018,-0.046,-0.029c-0.012,-0.01,-0.02,-0.024,-0.033,-0.034L117.91,85.13433074951172c-0.737,-0.571,-1.796,-0.436,-2.367,0.301c-0.571,0.737,-0.436,1.796,0.301,2.366L115.844,87.80110931396484l12.366,9.573l-2.701,0.985L101.781,106.99394989013672c-0.875,0.319,-1.327,1.287,-1.009,2.162c0.137,0.377,0.399,0.669,0.718,0.861c0.421,0.254,0.947,0.33,1.446,0.148l25.164,-9.16l1.265,-0.46L126.045,115.82823181152344c-0.198,0.912,0.38,1.809,1.292,2.007c0.323,0.069,0.644,0.042,0.934,-0.063c0.525,-0.191,0.946,-0.641,1.073,-1.23l-0.001,0l3.969,-18.273c0.004,-0.016,0.001,-0.03,0.003,-0.047c0.004,-0.018,0.014,-0.032,0.016,-0.052c0.009,-0.062,0.001,-0.123,0.004,-0.186c0.003,-0.072,0.009,-0.143,0.004,-0.215C133.332,97.696,133.312,97.624,133.296,97.5488052368164Z" transform="matrix(1,0,0,1,0,0)"></path><path d="M150.034,117.03319549560547c0.069,0.021,0.136,0.046,0.207,0.058c0.075,0.013,0.151,0.013,0.226,0.016c0.072,0.004,0.143,0.01,0.217,0.003c0.073,-0.008,0.145,-0.026,0.218,-0.043c0.059,-0.013,0.119,-0.015,0.178,-0.035c0.016,-0.007,0.03,-0.018,0.048,-0.025c0.014,-0.006,0.03,-0.005,0.046,-0.011L168.478,109.91614532470703c0.863,-0.352,1.276,-1.338,0.923,-2.2c-0.352,-0.863,-1.338,-1.276,-2.199,-0.922L167.201,106.79425811767578l-14.472,5.922l0.498,-2.832L157.611,85.01797485351562c0.162,-0.917,-0.451,-1.792,-1.368,-1.954c-0.396,-0.07,-0.779,0.011,-1.105,0.191c-0.431,0.238,-0.759,0.656,-0.852,1.178l-4.649,26.372l-0.234,1.327L137.829,101.61454010009766c-0.691,-0.628,-1.757,-0.575,-2.384,0.115c-0.222,0.245,-0.358,0.537,-0.412,0.841c-0.097,0.551,0.082,1.139,0.528,1.544l0,-0.002l13.84,12.574c0.011,0.011,0.026,0.015,0.039,0.026c0.013,0.013,0.021,0.028,0.036,0.04c0.049,0.039,0.105,0.062,0.158,0.096c0.061,0.039,0.12,0.08,0.184,0.111C149.888,116.991,149.961,117.01,150.034,117.03319549560547Z" transform="matrix(1,0,0,1,0,0)"></path><path d="M124.791,121.78640747070312c-0.053,0.05,-0.108,0.096,-0.154,0.151c-0.049,0.058,-0.087,0.124,-0.127,0.188c-0.039,0.061,-0.081,0.119,-0.111,0.186c-0.03,0.067,-0.049,0.138,-0.072,0.21c-0.018,0.058,-0.047,0.11,-0.059,0.171c-0.003,0.018,0,0.035,-0.002,0.054c-0.003,0.015,-0.011,0.029,-0.013,0.045L121.732,141.31883239746094c-0.126,0.923,0.522,1.773,1.444,1.899c0.924,0.126,1.773,-0.521,1.898,-1.444L125.074,141.77394104003906l2.107,-15.495l2.203,1.847L148.728,144.35739135742188c0.713,0.597,1.778,0.506,2.377,-0.208c0.258,-0.308,0.38,-0.68,0.387,-1.052c0.01,-0.492,-0.187,-0.984,-0.594,-1.326l-20.515,-17.213l-1.032,-0.866L144.246,118.92654418945312c0.889,-0.285,1.377,-1.233,1.092,-2.122c-0.102,-0.314,-0.286,-0.579,-0.521,-0.777c-0.428,-0.36,-1.028,-0.498,-1.601,-0.315l0.001,0.002l-17.81,5.698c-0.015,0.004,-0.026,0.014,-0.042,0.021c-0.018,0.005,-0.035,0.005,-0.053,0.012c-0.058,0.023,-0.107,0.061,-0.162,0.09c-0.063,0.034,-0.129,0.063,-0.189,0.104C124.899,121.681,124.847,121.735,124.791,121.78640747070312Z" transform="matrix(1,0,0,1,0,0)"></path></g></symbol></defs><rect width="100%" height="100%" id="BgenPttrnRctLayer1" fill="url(#BgenPttrnLayer1)"></rect><rect width="100%" height="100%" id="BgenPttrnRctLayer2" fill="url(#BgenPttrnLayer2)"></rect></svg>